<?xml version="1.0" encoding="UTF-8" standalone="no"?>
<svg width="88px" height="95px" viewBox="0 0 88 95" version="1.1" xmlns="http://www.w3.org/2000/svg" xmlns:xlink="http://www.w3.org/1999/xlink" xmlns:sketch="http://www.bohemiancoding.com/sketch/ns">
    <!-- Generator: Sketch 3.5.2 (25235) - http://www.bohemiancoding.com/sketch -->
    <title>Group</title>
    <desc>Created with Sketch.</desc>
    <defs></defs>
    <g id="Page-1" stroke="none" stroke-width="1" fill="none" fill-rule="evenodd" sketch:type="MSPage">
        <g id="Group" sketch:type="MSLayerGroup">
            <path d="M50.1203613,7.49971785 C50.0845692,7.55732377 49.8907487,8.29330489 49.7729492,9.48690953 C49.4736519,12.5195434 48.1097646,19.690656 47.072998,26.0746935 C45.6281738,34.9714039 43.0622559,49.5385719 42.3754883,52.9532479 C41.6887207,56.3679238 42.9633789,60.10956 45.0710449,60.9318045 C47.1787109,61.754049 51.6275635,61.9272473 56.0881348,61.9272473 C60.5487061,61.9272473 67.5354004,61.1694348 70.0144043,62.5825207 C72.4934082,63.9956067 72.8526611,70.4851086 70.0144043,72.4311535 C67.1761475,74.3771985 57.1860352,73.3706067 50.2463379,73.3706067 C45.5309202,73.3706067 28.0959473,73.1376965 24.7880859,72.2692883 C21.4802246,71.4008801 22.0167396,67.2868659 22.4157715,65.298341 C23.2919922,60.9318059 29.2384539,45.5564002 30.8288574,40.5379618 C32.4868164,35.3063556 38.5814612,7.78474944 38.472168,7.49971783 C37.982666,6.22311963 37.1213628,6.81217772 36.5997222,7.0274735 C33.8351866,8.16847519 6.744,23.6458694 6.744,23.6458694 C5.052,24.590274 4,26.3322639 4,28.2052007 L4,66.5765967 C4,68.4455655 5.052,70.1915235 6.744,71.1359281 L41.212,90.3216261 C42.932,91.2779349 45.068,91.2779349 46.788,90.3216261 L81.256,71.1359281 C82.948,70.1915235 84,68.4455655 84,66.5765967 L84,28.2052007 C84,26.336232 82.948,24.590274 81.256,23.6458694 C81.256,23.6458694 55.5488735,8.57971911 51.6289289,7.15474608 C51.2063227,7.00112084 50.6020508,6.72445877 50.1203613,7.49971785 Z M39.256,93.7778294 L4.788,74.5921314 C1.832,72.9493436 0,69.8780447 0,66.5765967 L0,28.2052007 C0,24.9037528 1.832,21.8324539 4.788,20.185698 L39.256,1 C39.9897461,0.586791978 41.5992432,0.685424783 41.9268799,1.43151855 C42.2545166,2.17761232 42.1322021,3.36572274 41.9268799,4.75524902 C41.7215576,6.1447753 40.0218697,15.0703903 39.2560005,19.2995605 C38.8397135,21.5983199 36.5772441,32.6026653 33.7318115,42.6634521 C31.3423251,51.1121196 28.004517,58.784798 27.7131348,60.3009033 C27.0747706,63.6224072 25.8577881,66.0285645 26.4656982,67.8364258 C27.0736084,69.6442871 29.3868408,69.5537543 31.8499756,69.8930664 C34.3131104,70.2323785 44.7434082,70.6287204 48.2216797,70.6287204 L59.3295898,70.6287204 C62.3137207,70.6287204 65.4260726,70.7102238 66.9006348,70.2373352 C68.3751969,69.7644467 69.0394287,68.8420218 69.0394287,67.5561523 C69.0394287,66.2702829 68.7505075,65.5128107 66.9006348,65.0057307 C64.5190546,64.3529012 60.4344929,64.6010266 59.8156738,64.6010266 L51.6999512,64.6010266 C49.3425293,64.6010266 44.4891357,64.2845644 42.6304932,63.1176758 C40.6989542,61.9050216 39.5489311,60.3973748 39.1174316,57.8519287 C38.6859322,55.3064826 39.1640625,50.1710102 39.9897461,46.0716553 C40.0013735,46.0139274 46.6764492,7.35555411 46.9953613,5.09903336 C47.1965636,3.6753901 47.5590645,2.27895302 48.2216797,1.82029724 C48.9628889,1.3072394 49.5137939,1.43151852 50.2663574,1.82029726 L56.104,5.09903331 C56.38,5.25378868 76.2,16.2811009 76.428,16.4080797 L83.216,20.185698 C86.168,21.8284858 88,24.9037528 88,28.2052007 L88,66.5765967 C88,69.8780447 86.168,72.9493436 83.212,74.5960995 L48.744,93.7817975 C47.28,94.5952552 45.64,95 44,95 C42.36,95 40.72,94.5912871 39.256,93.7778294 Z" id="outline" fill="#000000" sketch:type="MSShapeGroup"></path>
            <path d="M50.1203613,7.49642457 C50.0845692,7.55403049 49.8907487,8.2900116 49.7729492,9.48361624 C49.4736519,12.5162501 48.1097646,19.6873627 47.072998,26.0714002 C45.6281738,34.9681106 43.0622559,49.5352786 42.3754883,52.9499546 C41.6887207,56.3646305 42.9633789,60.1062668 45.0710449,60.9285112 C47.1787109,61.7507557 51.6275635,61.923954 56.0881348,61.923954 C60.5487061,61.923954 67.5354004,61.1661415 70.0144043,62.5792274 C72.4934082,63.9923134 72.8526611,70.4818153 70.0144043,72.4278603 C67.1761475,74.3739052 57.1860352,73.3673134 50.2463379,73.3673134 C45.5309202,73.3673134 28.0959473,73.1344032 24.7880859,72.265995 C21.4802246,71.3975868 22.0167396,67.2835726 22.4157715,65.2950478 C23.2919922,60.9285126 29.2384539,45.5531069 30.8288574,40.5346685 C32.4868164,35.3030623 38.5814612,7.78145616 38.472168,7.49642455 C37.982666,6.21982635 37.1213628,6.80888444 36.5997222,7.02418021 C33.8351866,8.16518191 6.744,23.6425761 6.744,23.6425761 C5.052,24.5869807 4,26.3289706 4,28.2019074 L4,66.5733034 C4,68.4422722 5.052,70.1882302 6.744,71.1326348 L41.212,90.3183328 C42.932,91.2746416 45.068,91.2746416 46.788,90.3183328 L81.256,71.1326348 C82.948,70.1882302 84,68.4422722 84,66.5733034 L84,28.2019074 C84,26.3329387 82.948,24.5869807 81.256,23.6425761 C81.256,23.6425761 55.5488735,8.57642583 51.6289289,7.15145279 C51.2063227,6.99782755 50.6020508,6.72116548 50.1203613,7.49642457 Z" id="inner" fill="#15B9C7" sketch:type="MSShapeGroup"></path>
        </g>
    </g>
</svg>